<svg xmlns="http://www.w3.org/2000/svg" width="100" height="100"><path opacity=".9" fill="#FF543D" d="M67.75 0H17.833a5 5 0 00-5 5v90a5 5 0 005 5h65.333a5 5 0 005-5V20.417L67.75 0z"/><path opacity=".4" fill="#FFF" d="M67.75 15.417a5 5 0 005 5h15.417L67.75 0v15.417z"/><path fill="#FFF" d="M33.415 81.667a3.588 3.588 0 01-3.591-3.591v-44.09a3.592 3.592 0 015.449-3.073l36.47 22.045a3.591 3.591 0 010 6.148l-36.47 22.046a3.615 3.615 0 01-1.858.515zm3.591-41.314v31.356L62.941 56.03 37.006 40.353z"/></svg>